<?xml version="1.0" encoding="UTF-8" standalone="no"?>
<svg
   xmlns:dc="http://purl.org/dc/elements/1.1/"
   xmlns:cc="http://creativecommons.org/ns#"
   xmlns:rdf="http://www.w3.org/1999/02/22-rdf-syntax-ns#"
   xmlns:svg="http://www.w3.org/2000/svg"
   xmlns="http://www.w3.org/2000/svg"
   xmlns:sodipodi="http://sodipodi.sourceforge.net/DTD/sodipodi-0.dtd"
   xmlns:inkscape="http://www.inkscape.org/namespaces/inkscape"
   version="1.1"
   id="svg1502"
   width="119"
   height="125"
   viewBox="0 0 119 125"
   sodipodi:docname="Samsung Interim 1976.svg"
   inkscape:version="1.0.2 (e86c870879, 2021-01-15, custom)">
  <metadata
     id="metadata1508">
    <rdf:RDF>
      <cc:Work
         rdf:about="">
        <dc:format>image/svg+xml</dc:format>
        <dc:type
           rdf:resource="http://purl.org/dc/dcmitype/StillImage" />
        <dc:title></dc:title>
      </cc:Work>
    </rdf:RDF>
  </metadata>
  <defs
     id="defs1506" />
  <sodipodi:namedview
     pagecolor="#ffffff"
     bordercolor="#666666"
     borderopacity="1"
     objecttolerance="10"
     gridtolerance="10"
     guidetolerance="10"
     inkscape:pageopacity="0"
     inkscape:pageshadow="2"
     inkscape:window-width="1920"
     inkscape:window-height="1001"
     id="namedview1504"
     showgrid="false"
     inkscape:snap-bbox="true"
     inkscape:bbox-paths="true"
     inkscape:bbox-nodes="true"
     inkscape:snap-bbox-midpoints="true"
     inkscape:snap-bbox-edge-midpoints="true"
     inkscape:snap-nodes="true"
     inkscape:object-paths="true"
     inkscape:snap-intersection-paths="true"
     inkscape:snap-smooth-nodes="true"
     inkscape:snap-midpoints="true"
     inkscape:snap-object-midpoints="true"
     inkscape:snap-center="true"
     inkscape:snap-text-baseline="true"
     inkscape:snap-page="true"
     inkscape:zoom="4.2596113"
     inkscape:cx="85.143239"
     inkscape:cy="47.434151"
     inkscape:window-x="-9"
     inkscape:window-y="-9"
     inkscape:window-maximized="1"
     inkscape:current-layer="g1510" />
  <g
     inkscape:groupmode="layer"
     inkscape:label="Image"
     id="g1510">
    <g
       aria-label="S"
       transform="scale(0.88329859,1.13212)"
       id="text2079"
       style="font-style:normal;font-variant:normal;font-weight:normal;font-stretch:normal;font-size:25.1504px;line-height:100;font-family:Arial;-inkscape-font-specification:Arial;letter-spacing:0px;word-spacing:0px;stroke:#000000;stroke-width:1.2046;stroke-miterlimit:4;stroke-dasharray:none;stroke-opacity:1">
      <path
         d="m 60.613545,59.484149 2.247326,-0.196488 q 0.159646,1.350852 0.736828,2.222765 0.589462,0.859633 1.817509,1.399973 1.228047,0.528061 2.763106,0.528061 1.363132,0 2.406972,-0.405256 1.043839,-0.405255 1.547339,-1.105242 0.515779,-0.712267 0.515779,-1.547339 0,-0.847352 -0.491218,-1.473656 -0.491219,-0.638585 -1.621022,-1.068401 -0.724548,-0.282451 -3.205203,-0.871913 -2.480654,-0.601743 -3.475372,-1.129804 -1.28945,-0.675425 -1.928034,-1.670143 -0.626304,-1.006999 -0.626304,-2.247326 0,-1.363132 0.77367,-2.542057 0.773669,-1.191206 2.259606,-1.805229 1.485937,-0.614024 3.303446,-0.614024 2.001716,0 3.524495,0.650865 1.535058,0.638585 2.35785,1.891193 0.822791,1.252607 0.884193,2.836788 l -2.284167,0.171926 q -0.184207,-1.706985 -1.252608,-2.578898 -1.05612,-0.871913 -3.131519,-0.871913 -2.161363,0 -3.156081,0.79823 -0.982437,0.78595 -0.982437,1.903473 0,0.970157 0.699987,1.596461 0.687706,0.626304 3.585896,1.289449 2.910472,0.650865 3.991153,1.142084 1.5719,0.724547 2.321008,1.84207 0.749109,1.105242 0.749109,2.554337 0,1.436815 -0.822791,2.713984 -0.822792,1.264888 -2.370131,1.977156 -1.535058,0.699986 -3.463092,0.699986 -2.443813,0 -4.101677,-0.712267 -1.645583,-0.712267 -2.591179,-2.136802 -0.933315,-1.436814 -0.982437,-3.242043 z"
         style="font-style:normal;font-variant:normal;font-weight:normal;font-stretch:normal;font-family:Arial;-inkscape-font-specification:Arial;stroke:#000000;stroke-width:1.2046;stroke-miterlimit:4;stroke-dasharray:none;stroke-opacity:1"
         id="path2104" />
    </g>
    <path
       style="color:#000000;font-style:normal;font-variant:normal;font-weight:normal;font-stretch:normal;font-size:medium;line-height:normal;font-family:sans-serif;font-variant-ligatures:normal;font-variant-position:normal;font-variant-caps:normal;font-variant-numeric:normal;font-variant-alternates:normal;font-variant-east-asian:normal;font-feature-settings:normal;font-variation-settings:normal;text-indent:0;text-align:start;text-decoration:none;text-decoration-line:none;text-decoration-style:solid;text-decoration-color:#000000;letter-spacing:normal;word-spacing:normal;text-transform:none;writing-mode:lr-tb;direction:ltr;text-orientation:mixed;dominant-baseline:auto;baseline-shift:baseline;text-anchor:start;white-space:normal;shape-padding:0;shape-margin:0;inline-size:0;clip-rule:nonzero;display:inline;overflow:visible;visibility:visible;opacity:1;isolation:auto;mix-blend-mode:normal;color-interpolation:sRGB;color-interpolation-filters:linearRGB;solid-color:#000000;solid-opacity:1;vector-effect:none;fill:#000000;fill-opacity:1;fill-rule:nonzero;stroke:none;stroke-linecap:butt;stroke-linejoin:miter;stroke-miterlimit:4;stroke-dasharray:none;stroke-dashoffset:0;stroke-opacity:1;color-rendering:auto;image-rendering:auto;shape-rendering:auto;text-rendering:auto;enable-background:accumulate;stop-color:#000000;stop-opacity:1"
       d="m 58.923828,0 -1.240234,1.4804688 c 0,0 -2.928711,3.6536139 -6.466797,9.3457032 L 49.705078,3.1425781 48.060547,3.3183594 C 40.036457,4.1794815 31.74572,10.060228 25.244141,15.599609 18.742562,21.138991 14.085937,26.480469 14.085938,26.480469 l -1.125,1.291015 10.982421,10.65625 1.177735,-1.93164 c 0,0 8.862839,-13.997693 22.248047,-19.054688 -1.708798,3.276378 -3.388369,6.923397 -4.826172,10.861328 -5.675355,15.543968 -7.534051,35.776187 7.904297,52.824219 l 2.679687,-2.425781 C 38.730416,62.803574 40.513148,44.399476 45.9375,29.542969 50.726582,16.426373 57.504636,7.6771217 59.230469,5.5097656 c 1.393418,1.4832846 4.106255,4.6546474 8.388672,11.1542964 0.94131,1.446504 1.952937,2.996888 3.074218,5.015626 2.834422,5.103047 5.595432,11.57849 5.658203,16.474609 l 3.613282,-0.04687 c -0.07836,-6.111668 -3.130945,-12.798205 -6.083985,-18.123047 7.046076,3.184354 12.524295,8.405908 18.546875,14.085937 l 1.080078,1.019532 12.031248,-8.59961 -1.49414,-1.507812 C 94.129607,14.982481 83.675387,7.0057748 70.494141,1.671875 L 68.804688,0.99023438 65.9375,8.2363281 C 62.751746,4.1102314 60.318359,1.3359375 60.318359,1.3359375 Z M 70.785156,5.8085938 C 81.966429,10.623803 91.143265,17.451981 99.921875,26.0625 l -6.101563,4.361328 C 87.11103,24.06562 80.488294,17.779054 70.794922,14.898438 c -0.06209,-0.09472 -0.09451,-0.121183 -0.15625,-0.214844 -1.108799,-1.702788 -1.720029,-2.647706 -2.107422,-3.179688 z m -23.9375,1.5195312 1.189453,6.048828 C 34.650082,17.473017 25.981774,28.792312 23.292969,32.761719 l -5.314453,-5.15625 c 1.317674,-1.45487 4.540736,-4.937351 9.609375,-9.25586 5.786111,-4.929798 13.07945,-9.7301955 19.259765,-11.021484 z m 63.443364,29.945313 -10.44727,9.478515 0.45898,1.162109 c 3.84832,9.758243 3.65827,16.381008 2.63477,20.525391 -0.38984,1.578539 -0.90481,2.493026 -1.38281,3.396485 C 95.078202,59.456175 85.375015,52.359084 76.332031,48.904297 62.774055,43.724599 50.822266,46.25 50.822266,46.25 l 0.74414,3.537109 c 0,0 10.939845,-2.297348 23.476563,2.492188 12.210698,4.664983 25.804691,15.978136 29.382811,40.773437 -2.65543,0.283066 -17.255049,1.712374 -34.384764,-1.875 l -0.740235,3.53711 c 6.787223,1.421407 13.065656,1.929955 18.802735,2.175781 -5.289943,9.435285 -19.128907,11.255855 -19.128907,11.255855 l -1.636718,0.17774 0.265625,16.48437 2.322265,-0.74804 c 17.306877,-5.58287 25.532149,-12.5764 29.373047,-18.42383 1.920452,-2.92372 2.725142,-5.54354 3.029292,-7.460939 0.12933,-0.815246 0.0398,-0.843899 0.0371,-1.398437 1.22521,-0.10595 4.42188,-0.238282 4.42188,-0.238282 l 1.7832,-0.220703 -0.21093,-1.785156 c -0.86031,-7.245852 -2.59938,-13.429578 -4.88477,-18.791015 0.27186,-0.328766 0.34915,-0.344341 0.7168,-0.935547 0.75831,-1.21945 1.6475,-3.038593 2.25586,-5.501953 1.16522,-4.718244 1.17658,-11.843127 -2.39063,-21.496094 l 4.76563,-4.320313 c 1.80228,5.263057 5.97306,20.157459 1.32421,36.207031 l 3.47071,1.003907 c 6.147,-21.221776 -2.33399,-41.080078 -2.33399,-41.080078 z M 7.2382812,38.462891 6.5039062,40.941406 c 0,0 -1.9151981,6.467441 -2.90625,14.900391 -0.9910518,8.43295 -1.1466285,18.903447 2.7167969,27.236328 L 9.59375,81.558594 C 6.245902,74.337743 6.2323823,64.374235 7.1855469,56.263672 c 0.6576526,-5.596026 1.5390396,-9.385905 2.1425781,-11.75 l 6.048828,4.492187 C 14.04358,52.202786 9.9657137,63.810117 15.492188,75.25 c -0.21322,0.549931 -1.323503,3.407981 -2.748047,7.173828 -1.554897,4.11044 -3.1853706,8.468587 -3.7011722,10.289063 l -0.46875,1.658203 1.6328122,0.546875 c 6.006686,2.017564 11.649146,2.988097 16.980469,3.277343 7.188778,11.511228 18.740588,13.797258 22.505859,14.244138 l 0.134766,8.06641 c -4.629571,-1.24133 -17.740472,-5.7941 -30.787109,-20.750001 l -2.722657,2.376951 c 16.753529,19.20527 35.042969,22.48828 35.042969,22.48828 l 2.15625,0.37891 -0.265625,-15.89648 -1.707031,-0.0664 c 0,0 -12.093455,-0.59541 -19.847656,-10.738282 9.970066,-0.273478 18.592468,-3.236483 25.576172,-7.691406 11.602824,-7.401474 18.823756,-18.606019 21.109374,-27.921875 l -3.509765,-0.861328 c -2.019805,8.232437 -8.774334,18.866986 -19.542969,25.736328 -10.41409,6.643176 -24.554322,9.839439 -42.193359,4.431641 0.642029,-1.915029 1.704458,-4.895218 2.988281,-8.289063 1.516338,-4.008509 2.866348,-7.492509 2.923828,-7.640625 0.10895,-0.18236 5.770643,-9.646524 11.615234,-16.306641 l -2.716796,-2.384765 c -4.629899,5.275932 -8.182664,10.778546 -10.152344,13.933594 -3.746651,-10.823681 1.40625,-22.146485 1.40625,-22.146485 l 0.636719,-1.341797 z M 98.789062,96.96875 c -0.01646,0.297688 0.04104,0.197187 -0.0293,0.640625 -0.230539,1.45333 -0.84876,3.555865 -2.482422,6.042965 -3.093802,4.71004 -10.176215,10.83109 -25.142578,16.06836 l -0.132813,-8.25781 c 3.722285,-0.57846 16.256271,-3.34187 21.087891,-14.427734 3.305007,0.04576 4.388997,0.04838 6.699218,-0.06641 z"
       id="path2101" />
  </g>
</svg>
